# xmcd
#
# Track frame offsets:
#	150
#	21742
#	32512
#	55050
#	70938
#	87054
#	99794
#	114500
#	137299
#	151997
#	183145
#	200637
#	219556
#	246391
#	275599
#	291649
#
# Disc length: 4176 seconds
#
# Revision: 1
# Processed by: cddbd v1.5.2PL0 Copyright (c) Steve Scherf et al.
# Submitted via: audiograbber 1.83.01
#
DISCID=e6104e10
DTITLE=Southside Jerry - Some Of My Friends
DYEAR=1900
DGENRE=
TTITLE0=Midnite Hour/Tell Mama
TTITLE1=Sha-Boom
TTITLE2=Summer Nights
TTITLE3=Rocket 69
TTITLE4=Uh-Huh
TTITLE5=Bang All Night
TTITLE6=Can I
TTITLE7=What A Difference A Day Makes
TTITLE8=Jerry's Blues
TTITLE9=Dream Bossa Nova
TTITLE10=Rock Me Right
TTITLE11=Are You Ready
TTITLE12=Watermelon Man/Hideaway/Cissy Strut
TTITLE13=If You Should Lose Me
TTITLE14=Belt Buckle Boogie
TTITLE15=Funny(Not much)
EXTD=
EXTT0=
EXTT1=
EXTT2=
EXTT3=
EXTT4=
EXTT5=
EXTT6=
EXTT7=
EXTT8=
EXTT9=
EXTT10=
EXTT11=
EXTT12=
EXTT13=
EXTT14=
EXTT15=
PLAYORDER=
